<svg id="wave" style="transform:rotate(180deg); transition: 0.3s" viewBox="0 0 1440 100" version="1.1" xmlns="http://www.w3.org/2000/svg"><defs><linearGradient id="sw-gradient-0" x1="0" x2="0" y1="1" y2="0"><stop stop-color="rgba(55, 5, 98, 1)" offset="0%"></stop><stop stop-color="rgba(55, 5, 98, 1)" offset="100%"></stop></linearGradient></defs><path style="transform:translate(0, 0px); opacity:1" fill="url(#sw-gradient-0)" d="M0,70L60,70C120,70,240,70,360,71.7C480,73,600,77,720,70C840,63,960,47,1080,36.7C1200,27,1320,23,1440,28.3C1560,33,1680,47,1800,58.3C1920,70,2040,80,2160,70C2280,60,2400,30,2520,16.7C2640,3,2760,7,2880,8.3C3000,10,3120,10,3240,11.7C3360,13,3480,17,3600,26.7C3720,37,3840,53,3960,55C4080,57,4200,43,4320,35C4440,27,4560,23,4680,23.3C4800,23,4920,27,5040,23.3C5160,20,5280,10,5400,11.7C5520,13,5640,27,5760,38.3C5880,50,6000,60,6120,55C6240,50,6360,30,6480,23.3C6600,17,6720,23,6840,28.3C6960,33,7080,37,7200,46.7C7320,57,7440,73,7560,76.7C7680,80,7800,70,7920,66.7C8040,63,8160,67,8280,56.7C8400,47,8520,23,8580,11.7L8640,0L8640,100L8580,100C8520,100,8400,100,8280,100C8160,100,8040,100,7920,100C7800,100,7680,100,7560,100C7440,100,7320,100,7200,100C7080,100,6960,100,6840,100C6720,100,6600,100,6480,100C6360,100,6240,100,6120,100C6000,100,5880,100,5760,100C5640,100,5520,100,5400,100C5280,100,5160,100,5040,100C4920,100,4800,100,4680,100C4560,100,4440,100,4320,100C4200,100,4080,100,3960,100C3840,100,3720,100,3600,100C3480,100,3360,100,3240,100C3120,100,3000,100,2880,100C2760,100,2640,100,2520,100C2400,100,2280,100,2160,100C2040,100,1920,100,1800,100C1680,100,1560,100,1440,100C1320,100,1200,100,1080,100C960,100,840,100,720,100C600,100,480,100,360,100C240,100,120,100,60,100L0,100Z"></path></svg>