<?xml version="1.0" standalone="no"?>
<svg xmlns:xlink="http://www.w3.org/1999/xlink" id="wave" style="transform:rotate(0deg); transition: 0.3s" viewBox="0 0 1440 280" version="1.1" xmlns="http://www.w3.org/2000/svg"><defs><linearGradient id="sw-gradient-0" x1="0" x2="0" y1="1" y2="0"><stop stop-color="rgba(240, 240, 240, 1)" offset="0%"/><stop stop-color="rgba(240, 240, 240, 1)" offset="100%"/></linearGradient></defs><path style="transform:translate(0, 0px); opacity:1" fill="url(#sw-gradient-0)" d="M0,168L80,177.3C160,187,320,205,480,186.7C640,168,800,112,960,93.3C1120,75,1280,93,1440,116.7C1600,140,1760,168,1920,154C2080,140,2240,84,2400,79.3C2560,75,2720,121,2880,154C3040,187,3200,205,3360,219.3C3520,233,3680,243,3840,238C4000,233,4160,215,4320,186.7C4480,159,4640,121,4800,88.7C4960,56,5120,28,5280,42C5440,56,5600,112,5760,154C5920,196,6080,224,6240,224C6400,224,6560,196,6720,196C6880,196,7040,224,7200,219.3C7360,215,7520,177,7680,163.3C7840,149,8000,159,8160,149.3C8320,140,8480,112,8640,88.7C8800,65,8960,47,9120,56C9280,65,9440,103,9600,98C9760,93,9920,47,10080,23.3C10240,0,10400,0,10560,37.3C10720,75,10880,149,11040,186.7C11200,224,11360,224,11440,224L11520,224L11520,280L11440,280C11360,280,11200,280,11040,280C10880,280,10720,280,10560,280C10400,280,10240,280,10080,280C9920,280,9760,280,9600,280C9440,280,9280,280,9120,280C8960,280,8800,280,8640,280C8480,280,8320,280,8160,280C8000,280,7840,280,7680,280C7520,280,7360,280,7200,280C7040,280,6880,280,6720,280C6560,280,6400,280,6240,280C6080,280,5920,280,5760,280C5600,280,5440,280,5280,280C5120,280,4960,280,4800,280C4640,280,4480,280,4320,280C4160,280,4000,280,3840,280C3680,280,3520,280,3360,280C3200,280,3040,280,2880,280C2720,280,2560,280,2400,280C2240,280,2080,280,1920,280C1760,280,1600,280,1440,280C1280,280,1120,280,960,280C800,280,640,280,480,280C320,280,160,280,80,280L0,280Z"/></svg>